<?xml version="1.0" encoding="UTF-8" standalone="no"?>
<!-- Created with Inkscape (http://www.inkscape.org/) -->

<svg
   width="71.958282mm"
   height="57.528618mm"
   viewBox="0 0 71.958282 57.528618"
   version="1.1"
   id="svg1"
   xml:space="preserve"
   inkscape:export-filename="bitmap.png"
   inkscape:export-xdpi="96"
   inkscape:export-ydpi="96"
   sodipodi:docname="aut-3.svg"
   xmlns:inkscape="http://www.inkscape.org/namespaces/inkscape"
   xmlns:sodipodi="http://sodipodi.sourceforge.net/DTD/sodipodi-0.dtd"
   xmlns="http://www.w3.org/2000/svg"
   xmlns:svg="http://www.w3.org/2000/svg"><sodipodi:namedview
     id="namedview1"
     pagecolor="#505050"
     bordercolor="#eeeeee"
     borderopacity="1"
     inkscape:showpageshadow="0"
     inkscape:pageopacity="0"
     inkscape:pagecheckerboard="0"
     inkscape:deskcolor="#505050"
     inkscape:document-units="mm"
     showgrid="false"
     showguides="true"
     inkscape:zoom="3.2337963"
     inkscape:cx="510.70007"
     inkscape:cy="361.03078"
     inkscape:window-width="3840"
     inkscape:window-height="2054"
     inkscape:window-x="-11"
     inkscape:window-y="-11"
     inkscape:window-maximized="1"
     inkscape:current-layer="layer1"><sodipodi:guide
       position="-189.24813,32.986652"
       orientation="1,0"
       id="guide192"
       inkscape:locked="false" /><inkscape:page
       x="0"
       y="0"
       width="71.958282"
       height="57.528618"
       id="page1"
       margin="0"
       bleed="0" /></sodipodi:namedview><defs
     id="defs1" /><g
     inkscape:label="Layer 1"
     inkscape:groupmode="layer"
     id="layer1"
     transform="translate(-45.248138,-204.22166)"><rect
       style="fill:#006680;fill-opacity:1;stroke:none;stroke-width:7.62128;stroke-linecap:round;stroke-linejoin:round;stroke-dasharray:none;stroke-opacity:1;paint-order:stroke markers fill"
       id="rect364"
       width="71.95829"
       height="57.528622"
       x="45.248138"
       y="204.22166"
       ry="0.45900005"
       inkscape:export-filename="rect364.png"
       inkscape:export-xdpi="96"
       inkscape:export-ydpi="96" /><text
       xml:space="preserve"
       style="font-style:normal;font-variant:normal;font-weight:bold;font-stretch:normal;font-size:20.1359px;font-family:Montserrat;-inkscape-font-specification:'Montserrat Bold';text-align:center;letter-spacing:0px;writing-mode:lr-tb;direction:ltr;text-anchor:middle;fill:#f2f2f2;fill-opacity:1;stroke:none;stroke-width:8.79109;stroke-linecap:round;stroke-linejoin:round;stroke-dasharray:none;stroke-opacity:1;paint-order:stroke markers fill"
       x="81.217224"
       y="245.85909"
       id="text364"><tspan
         sodipodi:role="line"
         id="tspan364"
         style="font-style:normal;font-variant:normal;font-weight:bold;font-stretch:normal;font-family:Montserrat;-inkscape-font-specification:'Montserrat Bold';fill:#f2f2f2;stroke-width:8.79109"
         x="81.217224"
         y="245.85909">aut-3</tspan></text><text
       xml:space="preserve"
       style="font-style:normal;font-variant:normal;font-weight:300;font-stretch:normal;font-size:2.13044px;font-family:Poppins;-inkscape-font-specification:'Poppins Light';text-align:center;letter-spacing:0px;writing-mode:lr-tb;direction:ltr;text-anchor:middle;fill:#f2f2f2;fill-opacity:1;stroke:none;stroke-width:0.930126;stroke-linecap:round;stroke-linejoin:round;stroke-dasharray:none;stroke-opacity:1;paint-order:stroke markers fill"
       x="81.176147"
       y="252.99397"
       id="text365"><tspan
         sodipodi:role="line"
         id="tspan365"
         style="font-style:normal;font-variant:normal;font-weight:300;font-stretch:normal;font-family:Poppins;-inkscape-font-specification:'Poppins Light';stroke-width:0.930126"
         x="81.468018"
         y="252.99397">advanced underlying tomography 3d </tspan></text><g
       id="g404"
       transform="translate(0,3.3072917)"><path
         style="fill:#f9f9f9;stroke-width:0.68706;stroke-linecap:round;stroke-linejoin:round;paint-order:stroke markers fill"
         d="m 75.064799,213.42664 a 0.15904726,0.15904726 0 0 0 -0.08186,0.13822 v 6.56464 a 0.15904726,0.15904726 0 0 0 0.0738,0.1342 l 6.08558,3.82177 a 0.15904726,0.15904726 0 0 0 0.16908,0 l 6.08558,-3.82177 a 0.15904726,0.15904726 0 0 0 0.07515,-0.1342 v -6.56464 a 0.15904726,0.15904726 0 0 0 -0.244228,-0.13419 l -6.001039,3.76809 -6.001039,-3.76809 a 0.15904726,0.15904726 0 0 0 -0.16103,-0.004 z m 0.236177,0.42673 5.841352,3.66745 a 0.15904726,0.15904726 0 0 0 0.16908,0 l 5.842694,-3.66745 v 6.18891 l -5.927234,3.71978 -5.925892,-3.71978 z"
         id="path390" /><path
         style="fill:#d35f5f;stroke-width:0.601065;stroke-linecap:round;stroke-linejoin:round;paint-order:stroke markers fill"
         d="m 75.162996,212.28765 -0.02111,0.013 v 0.47773 l 6.085442,3.82078 6.085451,-3.82078 v -0.47773 l -0.02111,-0.013 -6.06432,3.80745 z"
         id="path392" /><path
         style="fill:#00ffff;stroke-width:0.601065;stroke-linecap:round;stroke-linejoin:round;paint-order:stroke markers fill"
         d="m 75.162996,212.28765 -0.02111,0.013 v 0.47773 l 6.085442,3.82078 6.085451,-3.82078 v -0.47773 l -0.02111,-0.013 -6.06432,3.80745 z"
         id="path392-7" /><path
         style="fill:#f2f2f2;stroke-width:0.659786;stroke-linecap:round;stroke-linejoin:round;paint-order:stroke markers fill"
         d="m 81.22734,208.11596 -6.000452,3.76789 6.000452,3.76652 6.000113,-3.76652 z"
         id="path386" /><path
         style="fill:#00ffff;stroke-width:0.534345;stroke-linecap:round;stroke-linejoin:round;paint-order:stroke markers fill"
         d="m 80.589567,217.35352 v 4.1878 c 0,0.17267 0.25901,0.17267 0.25901,0 v -4.02515 z"
         id="path404" /><path
         style="fill:#00ffff;stroke-width:0.534345;stroke-linecap:round;stroke-linejoin:round;paint-order:stroke markers fill"
         d="m 82.467254,216.91131 -0.25901,0.16236 v 2.22534 c 0,0.17267 0.25901,0.17267 0.25901,0 z"
         id="path403" /><path
         style="fill:#00ffff;stroke-width:0.534345;stroke-linecap:round;stroke-linejoin:round;paint-order:stroke markers fill"
         d="m 78.895783,216.29015 v 3.95805 c 0,0.17268 0.25901,0.17268 0.25901,0 v -3.79569 z"
         id="path402" /><path
         style="fill:#00ffff;stroke-width:0.534345;stroke-linecap:round;stroke-linejoin:round;paint-order:stroke markers fill"
         d="m 84.914598,215.3752 -0.259011,0.16236 v 2.34822 c 0,0.17267 0.259011,0.17267 0.259011,0 z"
         id="path399" /><path
         id="path401"
         style="fill:#00ff00;stroke-width:0.68706;stroke-linecap:round;stroke-linejoin:round;paint-order:stroke markers fill"
         d="m 76.257618,215.86969 a 0.1818029,0.1818029 0 0 0 -0.182495,0.17824 v 4.32093 l 0.346172,0.21729 a 0.18196232,0.18196232 0 0 0 0.01775,-0.0547 v -4.48355 a 0.1818029,0.1818029 0 0 0 -0.18143,-0.17824 z m 7.230199,2.5386 a 0.1818029,0.1818029 0 0 0 -0.182495,0.17858 v 3.71168 l 0.363924,-0.2283 v -3.48338 a 0.1818029,0.1818029 0 0 0 -0.181429,-0.17858 z" /></g></g></svg>
